<svg width="28" height="28" viewBox="0 0 28 28" fill="none" xmlns="http://www.w3.org/2000/svg">
<path d="M16.043 21.3064C13.8667 20.498 11.6281 20.3737 9.57614 20.9333C8.14596 21.3064 6.77796 22.0526 5.53432 22.9853L4.66376 23.7315L4.41504 23.9802L4.97467 24.4777C5.03685 24.4777 5.03686 24.5399 5.09904 24.602C5.22341 24.7264 5.34778 24.7886 5.53432 24.9129L5.9074 25.1617L6.28049 24.8508C6.34268 24.7886 6.46704 24.6642 6.5914 24.602C7.71068 23.6693 8.95431 23.0475 10.2601 22.7366C11.939 22.3013 13.7423 22.3635 15.5456 23.0475C17.0379 23.6071 20.0849 24.2911 23.7536 22.7366L23.878 22.6744L24.0645 22.4879C24.0645 22.4257 24.1267 22.4257 24.1889 22.3635C24.4998 21.9904 24.8107 21.6173 25.0594 21.182L26.303 19.2544L24.3132 20.3737C21.3907 21.9904 18.7169 22.3013 16.043 21.3064Z" fill="#55B02E"/>
<path d="M7.52364 14.5906C9.20255 14.1553 11.0058 14.2175 12.8091 14.9015C14.7989 15.6477 19.8978 16.7048 25.6186 11.5437L26.5513 10.611L26.6135 10.5488L26.8622 10.3001L26.7378 9.98915C26.6756 9.74042 26.5513 9.42952 26.4269 9.11861L26.116 8.24805L25.4942 8.86987C25.432 8.99423 25.3076 9.05641 25.1833 9.18077C22.4473 11.979 18.2189 14.8393 13.3687 13.0982C11.1924 12.2899 8.95382 12.1655 6.90182 12.7251C4.91201 13.2848 3.17091 14.3419 1.55418 15.8342V15.7721L0.621456 16.767C0.621456 16.8291 0.559286 16.8292 0.497104 16.8913L0.310547 17.0779L0.372732 17.3266C0.434914 17.6375 0.559274 17.9484 0.621456 18.2593L0.994551 19.2542L1.61637 18.4459C1.67855 18.3215 1.80291 18.2593 1.86509 18.135C3.17091 16.9535 4.97419 15.2746 7.52364 14.5906Z" fill="#55B02E"/>
<path d="M1.49238 13.4713C2.92256 11.9789 4.53928 11.0462 6.28037 10.5487C7.95928 10.1135 9.76255 10.1757 11.5658 10.8597C17.1622 12.9117 22.0124 9.55383 24.1266 7.75056L24.9349 6.9422L25.2458 6.69346L24.9971 6.32039C24.8106 6.13384 24.6862 5.88511 24.4997 5.63638L24.1266 5.13892L23.6913 5.5742C23.6291 5.63638 23.5047 5.76074 23.4426 5.82292C20.8309 8.31019 16.7891 10.8597 12.1876 9.11857C10.0113 8.3102 7.77273 8.18584 5.72073 8.74547C4.41492 9.11856 3.17128 9.74038 1.92764 10.5487L0.621818 11.6058C0.497455 11.7302 0.435273 11.7924 0.310909 11.9167L0.186557 12.0411V12.2277C0.124375 12.6629 0.124367 13.0982 0.0621856 13.4713L0 15.0258L1.0571 13.9066C1.18146 13.7822 1.30583 13.5957 1.49238 13.4713Z" fill="#55B02E"/>
<path d="M17.8466 25.5346L17.7222 25.9077L17.8466 25.5346C17.66 25.4725 17.5357 25.4103 17.3491 25.3481C15.1728 24.5397 12.9342 24.4154 10.8822 24.975C10.4469 25.0994 10.0117 25.2237 9.57639 25.4103L8.08401 26.0943L7.71094 26.2808L8.95457 26.7161C9.32766 26.8405 9.70075 26.9648 10.0738 27.0892L10.2604 27.1514L10.4469 27.0892C10.6335 27.027 10.82 26.9026 11.0066 26.9026C11.1309 26.9026 11.2553 26.8405 11.3797 26.7783C12.872 26.4052 14.4887 26.4052 16.2298 26.9648C16.4164 27.027 16.5408 27.0892 16.7273 27.1514L17.0382 27.2757L17.2247 27.2135C17.66 27.0892 18.1575 26.9648 18.5306 26.7783L20.2717 26.1565L18.4684 25.7212C18.2818 25.659 18.0331 25.5968 17.8466 25.5346Z" fill="#55B02E"/>
<path d="M27.3597 12.6631L26.427 13.5958C26.3027 13.7202 26.1783 13.8445 26.0539 13.9689C23.5045 16.394 19.4005 19.0056 14.799 17.2645C12.6227 16.4562 10.3841 16.3318 8.33213 16.8915C6.40449 17.4511 4.66338 18.446 3.10884 19.9384L2.30048 20.8089L2.05176 21.1198L2.30048 21.4929C2.48703 21.7416 2.6114 21.9282 2.73576 22.1769L3.10884 22.7365L3.54412 22.1769C3.6063 22.1147 3.73066 21.9904 3.79284 21.9282C5.2852 20.3114 6.90193 19.3165 8.76739 18.8191C10.4463 18.3838 12.2496 18.446 14.0528 19.13C15.6074 19.6896 17.2241 19.8762 18.8408 19.6896C21.7012 19.3787 24.5616 17.762 26.6758 15.9587C26.8001 15.8344 26.9245 15.7722 27.0488 15.6478L27.2354 15.4613V15.2747C27.2354 14.9016 27.2976 14.4664 27.2976 14.0933L27.3597 12.6631Z" fill="#55B02E"/>
<path d="M3.73045 6.94226L3.54391 6.56916L3.73045 6.94226C4.10354 6.75571 4.53883 6.63134 4.91192 6.50698C6.59083 6.0717 8.3941 6.13389 10.1974 6.81789C11.3788 7.25316 12.5603 7.4397 13.8661 7.4397C16.4777 7.4397 19.0894 6.50698 21.5145 4.70371L22.4472 3.95752L22.7581 3.70879L22.1985 3.27351C22.0119 3.08697 21.7632 2.90043 21.5145 2.77607L21.1414 2.52734L20.8305 2.77607C20.7061 2.83825 20.6439 2.96261 20.5195 3.02479C17.2239 5.51206 13.9283 6.19607 10.8192 5.01462C8.58065 4.20625 6.34209 4.01971 4.10355 4.70371C3.917 4.76589 3.73046 4.82806 3.48173 4.89025L3.35738 4.95243L3.17082 5.13897C3.17082 5.20115 3.10865 5.20116 3.04647 5.26334C2.79774 5.63643 2.48682 5.94735 2.23809 6.32044L1.05664 8.12371L2.98428 7.12879C3.29519 7.12879 3.54391 7.00444 3.73045 6.94226Z" fill="#55B02E"/>
<path d="M8.82967 2.71393L9.01621 2.77611C9.82457 3.08702 11.0682 3.39793 12.6228 3.39793C14.2395 3.39793 15.794 3.02484 17.3486 2.40302L19.2762 1.47029L17.9704 1.03503C17.5973 0.910667 17.2242 0.786303 16.7889 0.724121H16.6024L16.4159 0.786288C16.2293 0.84847 16.0428 0.972848 15.8562 1.03503C13.9908 1.71903 12.1253 1.84339 10.322 1.34594C10.1355 1.28376 9.94894 1.22156 9.7624 1.15938L9.57586 1.0972L9.3893 1.15938C9.01621 1.28375 8.64313 1.40812 8.27004 1.59466L6.83984 2.21648L8.33222 2.65174C8.45659 2.58956 8.64312 2.65175 8.82967 2.71393Z" fill="#55B02E"/>
</svg>
